<mxfile host="app.diagrams.net" modified="2023-10-13T12:54:20.074Z" agent="Mozilla/5.0 (Windows NT 10.0; Win64; x64) AppleWebKit/537.36 (KHTML, like Gecko) Chrome/117.0.0.0 Safari/537.36 Edg/117.0.2045.60" etag="cM9sDvWaNGaaROXZ7Fen" version="22.0.4" type="github">
  <diagram name="PÃ¡gina-1" id="Cqf51munrHZnHvp4PFzI">
    <mxGraphModel dx="3332" dy="2592" grid="1" gridSize="10" guides="1" tooltips="1" connect="1" arrows="1" fold="1" page="1" pageScale="1" pageWidth="827" pageHeight="1169" math="0" shadow="0">
      <root>
        <mxCell id="0" />
        <mxCell id="1" parent="0" />
        <mxCell id="sh22XDgF-5pTv1pMjAMO-226" value="" style="endArrow=none;html=1;rounded=0;" parent="1" edge="1">
          <mxGeometry width="50" height="50" relative="1" as="geometry">
            <mxPoint x="430" y="379" as="sourcePoint" />
            <mxPoint x="430" y="291.6" as="targetPoint" />
          </mxGeometry>
        </mxCell>
        <mxCell id="sh22XDgF-5pTv1pMjAMO-222" value="" style="endArrow=none;html=1;rounded=0;" parent="1" edge="1">
          <mxGeometry width="50" height="50" relative="1" as="geometry">
            <mxPoint x="210" y="-33.14000000000007" as="sourcePoint" />
            <mxPoint x="210" y="-98.14000000000007" as="targetPoint" />
          </mxGeometry>
        </mxCell>
        <mxCell id="sh22XDgF-5pTv1pMjAMO-145" style="rounded=0;orthogonalLoop=1;jettySize=auto;html=1;exitX=0.05;exitY=1.005;exitDx=0;exitDy=0;endArrow=none;endFill=0;endSize=0;exitPerimeter=0;startSize=0;edgeStyle=elbowEdgeStyle;targetPerimeterSpacing=0;" parent="1" edge="1">
          <mxGeometry relative="1" as="geometry">
            <mxPoint x="100.22000000000008" y="358.74" as="targetPoint" />
            <mxPoint x="93.5400000000001" y="248.45000000000002" as="sourcePoint" />
          </mxGeometry>
        </mxCell>
        <mxCell id="CcxYi8R_Z1sQMrHgGMPV-12" value="" style="rounded=0;whiteSpace=wrap;html=1;fillColor=#d5e8d4;strokeColor=#82b366;container=1;" parent="1" vertex="1">
          <mxGeometry x="90" y="209.45000000000002" width="120" height="60" as="geometry" />
        </mxCell>
        <mxCell id="CcxYi8R_Z1sQMrHgGMPV-11" value="" style="group;movable=1;resizable=1;rotatable=1;deletable=1;editable=1;locked=0;connectable=1;" parent="CcxYi8R_Z1sQMrHgGMPV-12" vertex="1" connectable="0">
          <mxGeometry width="120" height="60" as="geometry" />
        </mxCell>
        <mxCell id="CcxYi8R_Z1sQMrHgGMPV-13" value="&lt;i&gt;&lt;b&gt;Voos&lt;/b&gt;&lt;/i&gt;" style="text;html=1;strokeColor=none;fillColor=none;align=center;verticalAlign=middle;whiteSpace=wrap;rounded=0;" parent="CcxYi8R_Z1sQMrHgGMPV-11" vertex="1">
          <mxGeometry x="30" y="15" width="60" height="30" as="geometry" />
        </mxCell>
        <mxCell id="CcxYi8R_Z1sQMrHgGMPV-14" value="" style="rounded=0;whiteSpace=wrap;html=1;fillColor=#d5e8d4;strokeColor=#82b366;container=1;" parent="1" vertex="1">
          <mxGeometry x="-57.5" y="-2.700000000000024" width="120" height="60" as="geometry" />
        </mxCell>
        <mxCell id="CcxYi8R_Z1sQMrHgGMPV-15" value="" style="group;movable=1;resizable=1;rotatable=1;deletable=1;editable=1;locked=0;connectable=1;" parent="CcxYi8R_Z1sQMrHgGMPV-14" vertex="1" connectable="0">
          <mxGeometry width="120" height="60" as="geometry" />
        </mxCell>
        <mxCell id="CcxYi8R_Z1sQMrHgGMPV-16" value="&lt;b&gt;&lt;i&gt;Passageiros&lt;/i&gt;&lt;/b&gt;" style="text;html=1;strokeColor=none;fillColor=none;align=center;verticalAlign=middle;whiteSpace=wrap;rounded=0;" parent="CcxYi8R_Z1sQMrHgGMPV-15" vertex="1">
          <mxGeometry x="30" y="15" width="60" height="30" as="geometry" />
        </mxCell>
        <mxCell id="sh22XDgF-5pTv1pMjAMO-228" style="edgeStyle=orthogonalEdgeStyle;rounded=0;orthogonalLoop=1;jettySize=auto;html=1;exitX=0;exitY=0.5;exitDx=0;exitDy=0;entryX=1;entryY=0.5;entryDx=0;entryDy=0;endArrow=none;endFill=0;" parent="1" source="9pVgxzobtzJ93LIfjiAZ-4" target="sh22XDgF-5pTv1pMjAMO-70" edge="1">
          <mxGeometry relative="1" as="geometry">
            <mxPoint x="177.5" y="-35.73764705882331" as="targetPoint" />
          </mxGeometry>
        </mxCell>
        <mxCell id="9pVgxzobtzJ93LIfjiAZ-3" value="" style="rounded=0;whiteSpace=wrap;html=1;fillColor=#d5e8d4;strokeColor=#82b366;container=1;" parent="1" vertex="1">
          <mxGeometry x="210" y="-150.00000000000009" width="120" height="60" as="geometry" />
        </mxCell>
        <mxCell id="9pVgxzobtzJ93LIfjiAZ-4" value="" style="group;movable=1;resizable=1;rotatable=1;deletable=1;editable=1;locked=0;connectable=1;" parent="9pVgxzobtzJ93LIfjiAZ-3" vertex="1" connectable="0">
          <mxGeometry width="120" height="60" as="geometry" />
        </mxCell>
        <mxCell id="9pVgxzobtzJ93LIfjiAZ-5" value="&lt;i&gt;&lt;b&gt;Dependentes&lt;/b&gt;&lt;/i&gt;" style="text;html=1;strokeColor=none;fillColor=none;align=center;verticalAlign=middle;whiteSpace=wrap;rounded=0;" parent="9pVgxzobtzJ93LIfjiAZ-4" vertex="1">
          <mxGeometry x="30" y="15" width="60" height="30" as="geometry" />
        </mxCell>
        <mxCell id="9pVgxzobtzJ93LIfjiAZ-8" value="" style="rounded=0;whiteSpace=wrap;html=1;fillColor=#d5e8d4;strokeColor=#82b366;container=1;" parent="1" vertex="1">
          <mxGeometry x="420" y="262.6" width="120" height="60" as="geometry" />
        </mxCell>
        <mxCell id="9pVgxzobtzJ93LIfjiAZ-9" value="" style="group;movable=1;resizable=1;rotatable=1;deletable=1;editable=1;locked=0;connectable=1;" parent="9pVgxzobtzJ93LIfjiAZ-8" vertex="1" connectable="0">
          <mxGeometry width="120" height="60" as="geometry" />
        </mxCell>
        <mxCell id="9pVgxzobtzJ93LIfjiAZ-10" value="&lt;i&gt;&lt;b&gt;Assentos&lt;/b&gt;&lt;/i&gt;" style="text;html=1;strokeColor=none;fillColor=none;align=center;verticalAlign=middle;whiteSpace=wrap;rounded=0;" parent="9pVgxzobtzJ93LIfjiAZ-9" vertex="1">
          <mxGeometry x="30" y="15" width="63" height="30" as="geometry" />
        </mxCell>
        <mxCell id="9pVgxzobtzJ93LIfjiAZ-11" value="" style="rounded=0;whiteSpace=wrap;html=1;fillColor=#d5e8d4;strokeColor=#82b366;container=1;" parent="1" vertex="1">
          <mxGeometry x="510" y="50" width="120" height="60" as="geometry" />
        </mxCell>
        <mxCell id="9pVgxzobtzJ93LIfjiAZ-12" value="" style="group;movable=1;resizable=1;rotatable=1;deletable=1;editable=1;locked=0;connectable=1;" parent="9pVgxzobtzJ93LIfjiAZ-11" vertex="1" connectable="0">
          <mxGeometry width="120" height="60" as="geometry" />
        </mxCell>
        <mxCell id="9pVgxzobtzJ93LIfjiAZ-13" value="&lt;i&gt;&lt;b&gt;Reserva&lt;br&gt;&lt;/b&gt;&lt;/i&gt;" style="text;html=1;strokeColor=none;fillColor=none;align=center;verticalAlign=middle;whiteSpace=wrap;rounded=0;" parent="9pVgxzobtzJ93LIfjiAZ-12" vertex="1">
          <mxGeometry x="30" y="15" width="60" height="25" as="geometry" />
        </mxCell>
        <mxCell id="sh22XDgF-5pTv1pMjAMO-6" value="Id (PK)" style="text;strokeColor=none;fillColor=none;align=left;verticalAlign=middle;spacingLeft=4;spacingRight=4;overflow=hidden;points=[[0,0.5],[1,0.5]];portConstraint=eastwest;rotatable=0;whiteSpace=wrap;html=1;" parent="1" vertex="1">
          <mxGeometry x="114.25" y="270.45000000000005" width="80" height="30" as="geometry" />
        </mxCell>
        <mxCell id="sh22XDgF-5pTv1pMjAMO-7" value="&lt;br&gt;&lt;br&gt;NumeroAviao" style="text;strokeColor=none;fillColor=none;align=left;verticalAlign=middle;spacingLeft=4;spacingRight=4;overflow=hidden;points=[[0,0.5],[1,0.5]];portConstraint=eastwest;rotatable=0;whiteSpace=wrap;html=1;" parent="1" vertex="1">
          <mxGeometry x="113.12" y="262.59999999999997" width="137" height="44.29" as="geometry" />
        </mxCell>
        <mxCell id="sh22XDgF-5pTv1pMjAMO-12" style="edgeStyle=orthogonalEdgeStyle;rounded=0;orthogonalLoop=1;jettySize=auto;html=1;entryX=0.5;entryY=0;entryDx=0;entryDy=0;endArrow=none;endFill=0;exitX=0.5;exitY=1;exitDx=0;exitDy=0;" parent="1" source="sh22XDgF-5pTv1pMjAMO-8" target="9pVgxzobtzJ93LIfjiAZ-8" edge="1">
          <mxGeometry relative="1" as="geometry">
            <mxPoint x="500" y="215" as="sourcePoint" />
            <Array as="points">
              <mxPoint x="560" y="180" />
            </Array>
          </mxGeometry>
        </mxCell>
        <mxCell id="sh22XDgF-5pTv1pMjAMO-15" value="CidadeOrigem" style="text;strokeColor=none;fillColor=none;align=left;verticalAlign=middle;spacingLeft=4;spacingRight=4;overflow=hidden;points=[[0,0.5],[1,0.5]];portConstraint=eastwest;rotatable=0;whiteSpace=wrap;html=1;" parent="1" vertex="1">
          <mxGeometry x="114.25" y="290.74" width="90" height="45" as="geometry" />
        </mxCell>
        <mxCell id="sh22XDgF-5pTv1pMjAMO-16" value="CidadeDestino" style="text;strokeColor=none;fillColor=none;align=left;verticalAlign=middle;spacingLeft=4;spacingRight=4;overflow=hidden;points=[[0,0.5],[1,0.5]];portConstraint=eastwest;rotatable=0;whiteSpace=wrap;html=1;" parent="1" vertex="1">
          <mxGeometry x="113.12" y="314.74" width="90" height="30" as="geometry" />
        </mxCell>
        <mxCell id="sh22XDgF-5pTv1pMjAMO-17" value="Id (PK)&lt;br&gt;VoosId (FK)&lt;br&gt;ReservaId (FK)" style="text;strokeColor=none;fillColor=none;align=left;verticalAlign=middle;spacingLeft=4;spacingRight=4;overflow=hidden;points=[[0,0.5],[1,0.5]];portConstraint=eastwest;rotatable=0;whiteSpace=wrap;html=1;" parent="1" vertex="1">
          <mxGeometry x="449" y="322.6" width="120" height="50" as="geometry" />
        </mxCell>
        <mxCell id="sh22XDgF-5pTv1pMjAMO-18" value="Quatidade" style="text;strokeColor=none;fillColor=none;align=left;verticalAlign=middle;spacingLeft=4;spacingRight=4;overflow=hidden;points=[[0,0.5],[1,0.5]];portConstraint=eastwest;rotatable=0;whiteSpace=wrap;html=1;" parent="1" vertex="1">
          <mxGeometry x="449" y="362.6" width="90" height="30" as="geometry" />
        </mxCell>
        <mxCell id="sh22XDgF-5pTv1pMjAMO-25" style="edgeStyle=orthogonalEdgeStyle;rounded=0;orthogonalLoop=1;jettySize=auto;html=1;exitX=0.95;exitY=0.533;exitDx=0;exitDy=0;entryX=0;entryY=0.5;entryDx=0;entryDy=0;endArrow=none;endFill=0;exitPerimeter=0;" parent="1" source="sh22XDgF-5pTv1pMjAMO-22" target="9pVgxzobtzJ93LIfjiAZ-9" edge="1">
          <mxGeometry relative="1" as="geometry">
            <mxPoint x="440" y="320" as="sourcePoint" />
          </mxGeometry>
        </mxCell>
        <mxCell id="sh22XDgF-5pTv1pMjAMO-26" value="HoraVoo" style="text;strokeColor=none;fillColor=none;align=left;verticalAlign=middle;spacingLeft=4;spacingRight=4;overflow=hidden;points=[[0,0.5],[1,0.5]];portConstraint=eastwest;rotatable=0;whiteSpace=wrap;html=1;" parent="1" vertex="1">
          <mxGeometry x="114.25" y="329.15" width="90" height="30" as="geometry" />
        </mxCell>
        <mxCell id="sh22XDgF-5pTv1pMjAMO-27" value="DataVoo" style="text;strokeColor=none;fillColor=none;align=left;verticalAlign=middle;spacingLeft=4;spacingRight=4;overflow=hidden;points=[[0,0.5],[1,0.5]];portConstraint=eastwest;rotatable=0;whiteSpace=wrap;html=1;" parent="1" vertex="1">
          <mxGeometry x="114.25" y="345.74" width="90" height="30" as="geometry" />
        </mxCell>
        <mxCell id="sh22XDgF-5pTv1pMjAMO-38" value="Id (PK)&lt;br&gt;VoosId (FK)" style="text;strokeColor=none;fillColor=none;align=left;verticalAlign=middle;spacingLeft=4;spacingRight=4;overflow=hidden;points=[[0,0.5],[1,0.5]];portConstraint=eastwest;rotatable=0;whiteSpace=wrap;html=1;" parent="1" vertex="1">
          <mxGeometry x="-37.5" y="52.600000000000044" width="80" height="30" as="geometry" />
        </mxCell>
        <mxCell id="sh22XDgF-5pTv1pMjAMO-73" value="CPF&lt;br&gt;Nome Telefone&lt;br&gt;E-mail EndereÃ§o" style="text;strokeColor=none;fillColor=none;align=left;verticalAlign=middle;spacingLeft=4;spacingRight=4;overflow=hidden;points=[[0,0.5],[1,0.5]];portConstraint=eastwest;rotatable=0;whiteSpace=wrap;html=1;" parent="1" vertex="1">
          <mxGeometry x="-37.5" y="77.60000000000005" width="90" height="80" as="geometry" />
        </mxCell>
        <mxCell id="sh22XDgF-5pTv1pMjAMO-74" value="Rua&lt;br&gt;NÃºmero Complemento Bairro&lt;br&gt;CEP&lt;br&gt;Cidade&lt;br&gt;Estado" style="text;strokeColor=none;fillColor=none;align=left;verticalAlign=middle;spacingLeft=4;spacingRight=4;overflow=hidden;points=[[0,0.5],[1,0.5]];portConstraint=eastwest;rotatable=0;whiteSpace=wrap;html=1;" parent="1" vertex="1">
          <mxGeometry x="-7.5" y="152.59999999999994" width="90" height="110" as="geometry" />
        </mxCell>
        <mxCell id="sh22XDgF-5pTv1pMjAMO-75" value="Id (PK)" style="text;strokeColor=none;fillColor=none;align=left;verticalAlign=middle;spacingLeft=4;spacingRight=4;overflow=hidden;points=[[0,0.5],[1,0.5]];portConstraint=eastwest;rotatable=0;whiteSpace=wrap;html=1;" parent="1" vertex="1">
          <mxGeometry x="230" y="-90.00000000000009" width="80" height="25" as="geometry" />
        </mxCell>
        <mxCell id="sh22XDgF-5pTv1pMjAMO-76" value="Nome&lt;br&gt;DataNascimento" style="text;strokeColor=none;fillColor=none;align=left;verticalAlign=middle;spacingLeft=4;spacingRight=4;overflow=hidden;points=[[0,0.5],[1,0.5]];portConstraint=eastwest;rotatable=0;whiteSpace=wrap;html=1;" parent="1" vertex="1">
          <mxGeometry x="230" y="-61.72999999999999" width="110" height="40" as="geometry" />
        </mxCell>
        <mxCell id="sh22XDgF-5pTv1pMjAMO-81" value="Id (PK)" style="text;strokeColor=none;fillColor=none;align=left;verticalAlign=middle;spacingLeft=4;spacingRight=4;overflow=hidden;points=[[0,0.5],[1,0.5]];portConstraint=eastwest;rotatable=0;whiteSpace=wrap;html=1;" parent="1" vertex="1">
          <mxGeometry x="530" y="-36.230000000000004" width="80" height="30" as="geometry" />
        </mxCell>
        <mxCell id="sh22XDgF-5pTv1pMjAMO-82" value="PassageirosId (FK)&lt;br&gt;DataReserva&lt;br&gt;HoraReserva" style="text;strokeColor=none;fillColor=none;align=left;verticalAlign=middle;spacingLeft=4;spacingRight=4;overflow=hidden;points=[[0,0.5],[1,0.5]];portConstraint=eastwest;rotatable=0;whiteSpace=wrap;html=1;" parent="1" vertex="1">
          <mxGeometry x="530" y="-35" width="140" height="90" as="geometry" />
        </mxCell>
        <mxCell id="sh22XDgF-5pTv1pMjAMO-234" style="edgeStyle=orthogonalEdgeStyle;rounded=0;orthogonalLoop=1;jettySize=auto;html=1;exitX=0.5;exitY=1;exitDx=0;exitDy=0;entryX=0.5;entryY=0;entryDx=0;entryDy=0;endArrow=none;endFill=0;" parent="1" source="sh22XDgF-5pTv1pMjAMO-88" target="CcxYi8R_Z1sQMrHgGMPV-11" edge="1">
          <mxGeometry relative="1" as="geometry" />
        </mxCell>
        <mxCell id="sh22XDgF-5pTv1pMjAMO-88" value="viajam" style="rhombus;whiteSpace=wrap;html=1;fillColor=#d5e8d4;strokeColor=#82b366;container=1;" parent="1" vertex="1">
          <mxGeometry x="94.25" y="135" width="130" height="50" as="geometry" />
        </mxCell>
        <mxCell id="sh22XDgF-5pTv1pMjAMO-8" value="contem" style="rhombus;whiteSpace=wrap;html=1;fillColor=#d5e8d4;strokeColor=#82b366;container=0;" parent="1" vertex="1">
          <mxGeometry x="500" y="159.14999999999998" width="130" height="51.73" as="geometry" />
        </mxCell>
        <mxCell id="sh22XDgF-5pTv1pMjAMO-22" value="contem" style="rhombus;whiteSpace=wrap;html=1;fillColor=#d5e8d4;strokeColor=#82b366;container=0;" parent="1" vertex="1">
          <mxGeometry x="250" y="210.87" width="130" height="51.73" as="geometry" />
        </mxCell>
        <mxCell id="sh22XDgF-5pTv1pMjAMO-117" value="PassageirosId (FK)" style="text;strokeColor=none;fillColor=none;align=left;verticalAlign=middle;spacingLeft=4;spacingRight=4;overflow=hidden;points=[[0,0.5],[1,0.5]];portConstraint=eastwest;rotatable=0;whiteSpace=wrap;html=1;" parent="1" vertex="1">
          <mxGeometry x="230" y="-77" width="120" height="30" as="geometry" />
        </mxCell>
        <mxCell id="sh22XDgF-5pTv1pMjAMO-138" style="edgeStyle=orthogonalEdgeStyle;rounded=0;orthogonalLoop=1;jettySize=auto;html=1;exitX=0.798;exitY=0.985;exitDx=0;exitDy=0;entryX=0.796;entryY=-0.061;entryDx=0;entryDy=0;entryPerimeter=0;endArrow=oval;endFill=0;exitPerimeter=0;" parent="1" edge="1">
          <mxGeometry relative="1" as="geometry">
            <mxPoint x="96.25" y="314.6" as="sourcePoint" />
            <mxPoint x="114.25" y="314.6" as="targetPoint" />
          </mxGeometry>
        </mxCell>
        <mxCell id="sh22XDgF-5pTv1pMjAMO-139" style="edgeStyle=orthogonalEdgeStyle;rounded=0;orthogonalLoop=1;jettySize=auto;html=1;exitX=0.59;exitY=0.997;exitDx=0;exitDy=0;endArrow=oval;endFill=0;exitPerimeter=0;" parent="1" edge="1">
          <mxGeometry relative="1" as="geometry">
            <mxPoint x="96.25" y="329.76" as="sourcePoint" />
            <mxPoint x="113.25" y="329.76" as="targetPoint" />
          </mxGeometry>
        </mxCell>
        <mxCell id="sh22XDgF-5pTv1pMjAMO-141" style="edgeStyle=orthogonalEdgeStyle;rounded=0;orthogonalLoop=1;jettySize=auto;html=1;exitX=0.5;exitY=0;exitDx=0;exitDy=0;entryX=0.49;entryY=-0.018;entryDx=0;entryDy=0;entryPerimeter=0;endArrow=oval;endFill=0;" parent="1" edge="1">
          <mxGeometry relative="1" as="geometry">
            <mxPoint x="96.435" y="344.7400000000001" as="sourcePoint" />
            <mxPoint x="114.25" y="345.4775000000001" as="targetPoint" />
          </mxGeometry>
        </mxCell>
        <mxCell id="sh22XDgF-5pTv1pMjAMO-142" style="edgeStyle=orthogonalEdgeStyle;rounded=0;orthogonalLoop=1;jettySize=auto;html=1;exitX=0.195;exitY=1.013;exitDx=0;exitDy=0;entryX=0.195;entryY=-0.003;entryDx=0;entryDy=0;entryPerimeter=0;endArrow=oval;endFill=0;exitPerimeter=0;" parent="1" edge="1">
          <mxGeometry relative="1" as="geometry">
            <mxPoint x="96.25" y="359.04999999999995" as="sourcePoint" />
            <mxPoint x="114.25" y="359.04999999999995" as="targetPoint" />
          </mxGeometry>
        </mxCell>
        <mxCell id="sh22XDgF-5pTv1pMjAMO-143" style="edgeStyle=orthogonalEdgeStyle;rounded=0;orthogonalLoop=1;jettySize=auto;html=1;exitX=0.59;exitY=0.997;exitDx=0;exitDy=0;endArrow=oval;endFill=0;exitPerimeter=0;" parent="1" edge="1">
          <mxGeometry relative="1" as="geometry">
            <mxPoint x="96.25" y="299.30000000000007" as="sourcePoint" />
            <mxPoint x="113.25" y="299.30000000000007" as="targetPoint" />
          </mxGeometry>
        </mxCell>
        <mxCell id="sh22XDgF-5pTv1pMjAMO-144" style="edgeStyle=orthogonalEdgeStyle;rounded=0;orthogonalLoop=1;jettySize=auto;html=1;endArrow=oval;endFill=1;" parent="1" edge="1">
          <mxGeometry relative="1" as="geometry">
            <mxPoint x="95.75" y="286.24" as="sourcePoint" />
            <mxPoint x="112.75" y="286.19000000000005" as="targetPoint" />
          </mxGeometry>
        </mxCell>
        <mxCell id="sh22XDgF-5pTv1pMjAMO-149" style="edgeStyle=orthogonalEdgeStyle;rounded=0;orthogonalLoop=1;jettySize=auto;html=1;exitX=0.5;exitY=1;exitDx=0;exitDy=0;entryX=0.5;entryY=0;entryDx=0;entryDy=0;endArrow=none;endFill=0;" parent="1" source="9pVgxzobtzJ93LIfjiAZ-12" target="sh22XDgF-5pTv1pMjAMO-8" edge="1">
          <mxGeometry relative="1" as="geometry" />
        </mxCell>
        <mxCell id="sh22XDgF-5pTv1pMjAMO-174" style="edgeStyle=orthogonalEdgeStyle;rounded=0;orthogonalLoop=1;jettySize=auto;html=1;exitX=0.798;exitY=0.985;exitDx=0;exitDy=0;entryX=0.796;entryY=-0.061;entryDx=0;entryDy=0;entryPerimeter=0;endArrow=oval;endFill=0;exitPerimeter=0;" parent="1" edge="1">
          <mxGeometry relative="1" as="geometry">
            <mxPoint x="430" y="361.0400000000001" as="sourcePoint" />
            <mxPoint x="448" y="361.0400000000001" as="targetPoint" />
          </mxGeometry>
        </mxCell>
        <mxCell id="sh22XDgF-5pTv1pMjAMO-175" style="edgeStyle=orthogonalEdgeStyle;rounded=0;orthogonalLoop=1;jettySize=auto;html=1;exitX=0.59;exitY=0.997;exitDx=0;exitDy=0;endArrow=oval;endFill=0;exitPerimeter=0;" parent="1" edge="1">
          <mxGeometry relative="1" as="geometry">
            <mxPoint x="430" y="378.20000000000005" as="sourcePoint" />
            <mxPoint x="447" y="378.20000000000005" as="targetPoint" />
          </mxGeometry>
        </mxCell>
        <mxCell id="sh22XDgF-5pTv1pMjAMO-178" style="edgeStyle=orthogonalEdgeStyle;rounded=0;orthogonalLoop=1;jettySize=auto;html=1;exitX=0.59;exitY=0.997;exitDx=0;exitDy=0;endArrow=oval;endFill=0;exitPerimeter=0;" parent="1" edge="1">
          <mxGeometry relative="1" as="geometry">
            <mxPoint x="430" y="347.7400000000001" as="sourcePoint" />
            <mxPoint x="447" y="347.7400000000001" as="targetPoint" />
          </mxGeometry>
        </mxCell>
        <mxCell id="sh22XDgF-5pTv1pMjAMO-179" style="edgeStyle=orthogonalEdgeStyle;rounded=0;orthogonalLoop=1;jettySize=auto;html=1;endArrow=oval;endFill=1;" parent="1" edge="1">
          <mxGeometry relative="1" as="geometry">
            <mxPoint x="430.5" y="334.68000000000006" as="sourcePoint" />
            <mxPoint x="447.5" y="334.6300000000001" as="targetPoint" />
          </mxGeometry>
        </mxCell>
        <mxCell id="sh22XDgF-5pTv1pMjAMO-180" value="&lt;b&gt;&lt;i&gt;n:1&lt;/i&gt;&lt;/b&gt;" style="text;html=1;strokeColor=none;fillColor=none;align=center;verticalAlign=middle;whiteSpace=wrap;rounded=0;" parent="1" vertex="1">
          <mxGeometry x="210" y="145" width="60" height="30" as="geometry" />
        </mxCell>
        <mxCell id="sh22XDgF-5pTv1pMjAMO-184" value="&lt;i&gt;&lt;b&gt;1 : n&lt;/b&gt;&lt;/i&gt;" style="text;html=1;strokeColor=none;fillColor=none;align=center;verticalAlign=middle;whiteSpace=wrap;rounded=0;" parent="1" vertex="1">
          <mxGeometry x="280" y="180.87" width="60" height="30" as="geometry" />
        </mxCell>
        <mxCell id="sh22XDgF-5pTv1pMjAMO-188" value="&lt;b&gt;&lt;i&gt;1:n&lt;/i&gt;&lt;/b&gt;" style="text;html=1;strokeColor=none;fillColor=none;align=center;verticalAlign=middle;whiteSpace=wrap;rounded=0;" parent="1" vertex="1">
          <mxGeometry x="250" y="1.9799999999999969" width="60" height="30" as="geometry" />
        </mxCell>
        <mxCell id="sh22XDgF-5pTv1pMjAMO-189" value="&lt;b&gt;&lt;i&gt;n:1&lt;/i&gt;&lt;/b&gt;" style="text;html=1;strokeColor=none;fillColor=none;align=center;verticalAlign=middle;whiteSpace=wrap;rounded=0;" parent="1" vertex="1">
          <mxGeometry x="-27.5" y="-95" width="60" height="30" as="geometry" />
        </mxCell>
        <mxCell id="sh22XDgF-5pTv1pMjAMO-191" value="&lt;i&gt;&lt;b&gt;1 : n&lt;/b&gt;&lt;/i&gt;" style="text;html=1;strokeColor=none;fillColor=none;align=center;verticalAlign=middle;whiteSpace=wrap;rounded=0;" parent="1" vertex="1">
          <mxGeometry x="620" y="170.01" width="60" height="30" as="geometry" />
        </mxCell>
        <mxCell id="sh22XDgF-5pTv1pMjAMO-227" style="edgeStyle=orthogonalEdgeStyle;rounded=0;orthogonalLoop=1;jettySize=auto;html=1;exitX=0.5;exitY=1;exitDx=0;exitDy=0;endArrow=none;endFill=0;entryX=0.5;entryY=0;entryDx=0;entryDy=0;" parent="1" source="sh22XDgF-5pTv1pMjAMO-70" target="CcxYi8R_Z1sQMrHgGMPV-15" edge="1">
          <mxGeometry relative="1" as="geometry">
            <mxPoint x="3" y="-10" as="targetPoint" />
          </mxGeometry>
        </mxCell>
        <mxCell id="sh22XDgF-5pTv1pMjAMO-70" value="possui" style="rhombus;whiteSpace=wrap;html=1;fillColor=#d5e8d4;strokeColor=#82b366;container=0;" parent="1" vertex="1">
          <mxGeometry x="15" y="-101.76235294117647" width="145" height="48.52941176470588" as="geometry" />
        </mxCell>
        <mxCell id="sh22XDgF-5pTv1pMjAMO-231" style="edgeStyle=orthogonalEdgeStyle;rounded=0;orthogonalLoop=1;jettySize=auto;html=1;exitX=1;exitY=0.5;exitDx=0;exitDy=0;entryX=0;entryY=0.5;entryDx=0;entryDy=0;endArrow=none;endFill=0;" parent="1" source="sh22XDgF-5pTv1pMjAMO-79" target="9pVgxzobtzJ93LIfjiAZ-12" edge="1">
          <mxGeometry relative="1" as="geometry" />
        </mxCell>
        <mxCell id="sh22XDgF-5pTv1pMjAMO-79" value="realiza" style="rhombus;whiteSpace=wrap;html=1;fillColor=#d5e8d4;strokeColor=#82b366;container=0;" parent="1" vertex="1">
          <mxGeometry x="210" y="27.6" width="130" height="50" as="geometry" />
        </mxCell>
        <mxCell id="sh22XDgF-5pTv1pMjAMO-202" style="edgeStyle=orthogonalEdgeStyle;rounded=0;orthogonalLoop=1;jettySize=auto;html=1;exitX=0.59;exitY=0.997;exitDx=0;exitDy=0;endArrow=oval;endFill=0;exitPerimeter=0;" parent="1" edge="1">
          <mxGeometry relative="1" as="geometry">
            <mxPoint x="-57.5" y="87.60000000000016" as="sourcePoint" />
            <mxPoint x="-40.5" y="87.60000000000016" as="targetPoint" />
          </mxGeometry>
        </mxCell>
        <mxCell id="sh22XDgF-5pTv1pMjAMO-203" style="edgeStyle=orthogonalEdgeStyle;rounded=0;orthogonalLoop=1;jettySize=auto;html=1;exitX=0.59;exitY=0.997;exitDx=0;exitDy=0;endArrow=oval;endFill=0;exitPerimeter=0;" parent="1" edge="1">
          <mxGeometry relative="1" as="geometry">
            <mxPoint x="-57.5" y="101.72000000000017" as="sourcePoint" />
            <mxPoint x="-40.5" y="101.72000000000017" as="targetPoint" />
          </mxGeometry>
        </mxCell>
        <mxCell id="sh22XDgF-5pTv1pMjAMO-204" style="edgeStyle=orthogonalEdgeStyle;rounded=0;orthogonalLoop=1;jettySize=auto;html=1;exitX=0.59;exitY=0.997;exitDx=0;exitDy=0;endArrow=oval;endFill=0;exitPerimeter=0;" parent="1" edge="1">
          <mxGeometry relative="1" as="geometry">
            <mxPoint x="-57.5" y="117.46000000000012" as="sourcePoint" />
            <mxPoint x="-40.5" y="117.46000000000012" as="targetPoint" />
          </mxGeometry>
        </mxCell>
        <mxCell id="sh22XDgF-5pTv1pMjAMO-205" style="edgeStyle=orthogonalEdgeStyle;rounded=0;orthogonalLoop=1;jettySize=auto;html=1;exitX=0.59;exitY=0.997;exitDx=0;exitDy=0;endArrow=oval;endFill=0;exitPerimeter=0;" parent="1" edge="1">
          <mxGeometry relative="1" as="geometry">
            <mxPoint x="-57.5" y="131.60000000000016" as="sourcePoint" />
            <mxPoint x="-40.5" y="131.60000000000016" as="targetPoint" />
          </mxGeometry>
        </mxCell>
        <mxCell id="sh22XDgF-5pTv1pMjAMO-206" style="edgeStyle=orthogonalEdgeStyle;rounded=0;orthogonalLoop=1;jettySize=auto;html=1;exitX=0.59;exitY=0.997;exitDx=0;exitDy=0;endArrow=oval;endFill=0;exitPerimeter=0;" parent="1" edge="1">
          <mxGeometry relative="1" as="geometry">
            <mxPoint x="-57.5" y="146.60000000000016" as="sourcePoint" />
            <mxPoint x="-40.5" y="146.60000000000016" as="targetPoint" />
          </mxGeometry>
        </mxCell>
        <mxCell id="sh22XDgF-5pTv1pMjAMO-207" style="edgeStyle=orthogonalEdgeStyle;rounded=0;orthogonalLoop=1;jettySize=auto;html=1;exitX=0.59;exitY=0.997;exitDx=0;exitDy=0;endArrow=oval;endFill=0;exitPerimeter=0;" parent="1" edge="1">
          <mxGeometry relative="1" as="geometry">
            <mxPoint x="-27.5" y="167.60000000000016" as="sourcePoint" />
            <mxPoint x="-10.5" y="167.60000000000016" as="targetPoint" />
          </mxGeometry>
        </mxCell>
        <mxCell id="sh22XDgF-5pTv1pMjAMO-208" style="edgeStyle=orthogonalEdgeStyle;rounded=0;orthogonalLoop=1;jettySize=auto;html=1;exitX=0.59;exitY=0.997;exitDx=0;exitDy=0;endArrow=oval;endFill=0;exitPerimeter=0;" parent="1" edge="1">
          <mxGeometry relative="1" as="geometry">
            <mxPoint x="-27.5" y="179.60000000000016" as="sourcePoint" />
            <mxPoint x="-10.5" y="179.60000000000016" as="targetPoint" />
          </mxGeometry>
        </mxCell>
        <mxCell id="sh22XDgF-5pTv1pMjAMO-209" style="edgeStyle=orthogonalEdgeStyle;rounded=0;orthogonalLoop=1;jettySize=auto;html=1;exitX=0.59;exitY=0.997;exitDx=0;exitDy=0;endArrow=oval;endFill=0;exitPerimeter=0;" parent="1" edge="1">
          <mxGeometry relative="1" as="geometry">
            <mxPoint x="-27.5" y="192.60000000000016" as="sourcePoint" />
            <mxPoint x="-10.5" y="192.60000000000016" as="targetPoint" />
          </mxGeometry>
        </mxCell>
        <mxCell id="sh22XDgF-5pTv1pMjAMO-210" style="edgeStyle=orthogonalEdgeStyle;rounded=0;orthogonalLoop=1;jettySize=auto;html=1;exitX=0.59;exitY=0.997;exitDx=0;exitDy=0;endArrow=oval;endFill=0;exitPerimeter=0;" parent="1" edge="1">
          <mxGeometry relative="1" as="geometry">
            <mxPoint x="-27.5" y="207.46000000000006" as="sourcePoint" />
            <mxPoint x="-10.5" y="207.46000000000006" as="targetPoint" />
          </mxGeometry>
        </mxCell>
        <mxCell id="sh22XDgF-5pTv1pMjAMO-211" style="edgeStyle=orthogonalEdgeStyle;rounded=0;orthogonalLoop=1;jettySize=auto;html=1;exitX=0.59;exitY=0.997;exitDx=0;exitDy=0;endArrow=oval;endFill=0;exitPerimeter=0;" parent="1" edge="1">
          <mxGeometry relative="1" as="geometry">
            <mxPoint x="-27.5" y="222.46000000000006" as="sourcePoint" />
            <mxPoint x="-10.5" y="222.46000000000006" as="targetPoint" />
          </mxGeometry>
        </mxCell>
        <mxCell id="sh22XDgF-5pTv1pMjAMO-212" style="edgeStyle=orthogonalEdgeStyle;rounded=0;orthogonalLoop=1;jettySize=auto;html=1;exitX=0.59;exitY=0.997;exitDx=0;exitDy=0;endArrow=oval;endFill=0;exitPerimeter=0;" parent="1" edge="1">
          <mxGeometry relative="1" as="geometry">
            <mxPoint x="-27.5" y="237.60000000000016" as="sourcePoint" />
            <mxPoint x="-10.5" y="237.60000000000016" as="targetPoint" />
          </mxGeometry>
        </mxCell>
        <mxCell id="sh22XDgF-5pTv1pMjAMO-213" style="edgeStyle=orthogonalEdgeStyle;rounded=0;orthogonalLoop=1;jettySize=auto;html=1;exitX=0.59;exitY=0.997;exitDx=0;exitDy=0;endArrow=oval;endFill=0;exitPerimeter=0;" parent="1" edge="1">
          <mxGeometry relative="1" as="geometry">
            <mxPoint x="-27.5" y="252.60000000000016" as="sourcePoint" />
            <mxPoint x="-10.5" y="252.60000000000016" as="targetPoint" />
          </mxGeometry>
        </mxCell>
        <mxCell id="sh22XDgF-5pTv1pMjAMO-215" style="edgeStyle=orthogonalEdgeStyle;rounded=0;orthogonalLoop=1;jettySize=auto;html=1;exitX=0.59;exitY=0.997;exitDx=0;exitDy=0;endArrow=oval;endFill=1;exitPerimeter=0;" parent="1" edge="1">
          <mxGeometry relative="1" as="geometry">
            <mxPoint x="-57.5" y="62.39000000000014" as="sourcePoint" />
            <mxPoint x="-40.5" y="62.39000000000014" as="targetPoint" />
          </mxGeometry>
        </mxCell>
        <mxCell id="sh22XDgF-5pTv1pMjAMO-217" value="" style="endArrow=none;html=1;rounded=0;entryX=0;entryY=1;entryDx=0;entryDy=0;" parent="1" target="CcxYi8R_Z1sQMrHgGMPV-15" edge="1">
          <mxGeometry width="50" height="50" relative="1" as="geometry">
            <mxPoint x="-57.5" y="147.59999999999994" as="sourcePoint" />
            <mxPoint x="-37.5" y="97.60000000000005" as="targetPoint" />
          </mxGeometry>
        </mxCell>
        <mxCell id="sh22XDgF-5pTv1pMjAMO-218" value="" style="endArrow=none;html=1;rounded=0;" parent="1" edge="1">
          <mxGeometry width="50" height="50" relative="1" as="geometry">
            <mxPoint x="-27.5" y="252.59999999999994" as="sourcePoint" />
            <mxPoint x="-27.5" y="152.59999999999994" as="targetPoint" />
          </mxGeometry>
        </mxCell>
        <mxCell id="sh22XDgF-5pTv1pMjAMO-221" style="edgeStyle=orthogonalEdgeStyle;rounded=0;orthogonalLoop=1;jettySize=auto;html=1;exitX=0.59;exitY=0.997;exitDx=0;exitDy=0;endArrow=oval;endFill=1;exitPerimeter=0;" parent="1" edge="1">
          <mxGeometry relative="1" as="geometry">
            <mxPoint x="210" y="-74.99999999999986" as="sourcePoint" />
            <mxPoint x="227" y="-74.99999999999986" as="targetPoint" />
          </mxGeometry>
        </mxCell>
        <mxCell id="sh22XDgF-5pTv1pMjAMO-223" style="edgeStyle=orthogonalEdgeStyle;rounded=0;orthogonalLoop=1;jettySize=auto;html=1;exitX=0.59;exitY=0.997;exitDx=0;exitDy=0;endArrow=oval;endFill=0;exitPerimeter=0;" parent="1" edge="1">
          <mxGeometry relative="1" as="geometry">
            <mxPoint x="210" y="-59.99999999999986" as="sourcePoint" />
            <mxPoint x="227" y="-59.99999999999986" as="targetPoint" />
          </mxGeometry>
        </mxCell>
        <mxCell id="sh22XDgF-5pTv1pMjAMO-224" style="edgeStyle=orthogonalEdgeStyle;rounded=0;orthogonalLoop=1;jettySize=auto;html=1;exitX=0.59;exitY=0.997;exitDx=0;exitDy=0;endArrow=oval;endFill=0;exitPerimeter=0;" parent="1" edge="1">
          <mxGeometry relative="1" as="geometry">
            <mxPoint x="210" y="-46.99999999999986" as="sourcePoint" />
            <mxPoint x="227" y="-46.99999999999986" as="targetPoint" />
          </mxGeometry>
        </mxCell>
        <mxCell id="sh22XDgF-5pTv1pMjAMO-225" style="edgeStyle=orthogonalEdgeStyle;rounded=0;orthogonalLoop=1;jettySize=auto;html=1;exitX=0.59;exitY=0.997;exitDx=0;exitDy=0;endArrow=oval;endFill=0;exitPerimeter=0;" parent="1" edge="1">
          <mxGeometry relative="1" as="geometry">
            <mxPoint x="211" y="-34.139999999999844" as="sourcePoint" />
            <mxPoint x="228" y="-34.139999999999844" as="targetPoint" />
          </mxGeometry>
        </mxCell>
        <mxCell id="sh22XDgF-5pTv1pMjAMO-229" style="edgeStyle=orthogonalEdgeStyle;rounded=0;orthogonalLoop=1;jettySize=auto;html=1;exitX=1;exitY=0.5;exitDx=0;exitDy=0;entryX=0;entryY=0.5;entryDx=0;entryDy=0;endArrow=none;endFill=0;" parent="1" source="CcxYi8R_Z1sQMrHgGMPV-11" target="sh22XDgF-5pTv1pMjAMO-22" edge="1">
          <mxGeometry relative="1" as="geometry" />
        </mxCell>
        <mxCell id="sh22XDgF-5pTv1pMjAMO-230" style="edgeStyle=orthogonalEdgeStyle;rounded=0;orthogonalLoop=1;jettySize=auto;html=1;exitX=1;exitY=0.5;exitDx=0;exitDy=0;entryX=0;entryY=0.5;entryDx=0;entryDy=0;endArrow=none;endFill=0;" parent="1" source="CcxYi8R_Z1sQMrHgGMPV-15" target="sh22XDgF-5pTv1pMjAMO-79" edge="1">
          <mxGeometry relative="1" as="geometry" />
        </mxCell>
        <mxCell id="sh22XDgF-5pTv1pMjAMO-233" style="edgeStyle=orthogonalEdgeStyle;rounded=0;orthogonalLoop=1;jettySize=auto;html=1;exitX=1;exitY=1;exitDx=0;exitDy=0;entryX=0;entryY=0.5;entryDx=0;entryDy=0;endArrow=none;endFill=0;" parent="1" source="CcxYi8R_Z1sQMrHgGMPV-15" target="sh22XDgF-5pTv1pMjAMO-88" edge="1">
          <mxGeometry relative="1" as="geometry" />
        </mxCell>
        <mxCell id="sh22XDgF-5pTv1pMjAMO-235" style="edgeStyle=orthogonalEdgeStyle;rounded=0;orthogonalLoop=1;jettySize=auto;html=1;exitX=0.59;exitY=0.997;exitDx=0;exitDy=0;endArrow=oval;endFill=0;exitPerimeter=0;" parent="1" edge="1">
          <mxGeometry relative="1" as="geometry">
            <mxPoint x="-57.5" y="75.60000000000016" as="sourcePoint" />
            <mxPoint x="-40.5" y="75.60000000000016" as="targetPoint" />
          </mxGeometry>
        </mxCell>
        <mxCell id="sh22XDgF-5pTv1pMjAMO-236" style="edgeStyle=orthogonalEdgeStyle;rounded=0;orthogonalLoop=1;jettySize=auto;html=1;exitX=0.59;exitY=0.997;exitDx=0;exitDy=0;endArrow=oval;endFill=0;exitPerimeter=0;" parent="1" edge="1">
          <mxGeometry relative="1" as="geometry">
            <mxPoint x="513" y="27.100000000000165" as="sourcePoint" />
            <mxPoint x="530" y="27.100000000000165" as="targetPoint" />
          </mxGeometry>
        </mxCell>
        <mxCell id="sh22XDgF-5pTv1pMjAMO-237" style="edgeStyle=orthogonalEdgeStyle;rounded=0;orthogonalLoop=1;jettySize=auto;html=1;exitX=0.59;exitY=0.997;exitDx=0;exitDy=0;endArrow=oval;endFill=0;exitPerimeter=0;" parent="1" edge="1">
          <mxGeometry relative="1" as="geometry">
            <mxPoint x="513" y="-4.899999999999835" as="sourcePoint" />
            <mxPoint x="530" y="-4.899999999999835" as="targetPoint" />
          </mxGeometry>
        </mxCell>
        <mxCell id="sh22XDgF-5pTv1pMjAMO-238" style="edgeStyle=orthogonalEdgeStyle;rounded=0;orthogonalLoop=1;jettySize=auto;html=1;exitX=0.59;exitY=0.997;exitDx=0;exitDy=0;endArrow=oval;endFill=0;exitPerimeter=0;" parent="1" edge="1">
          <mxGeometry relative="1" as="geometry">
            <mxPoint x="513" y="11.100000000000165" as="sourcePoint" />
            <mxPoint x="530" y="11.100000000000165" as="targetPoint" />
          </mxGeometry>
        </mxCell>
        <mxCell id="sh22XDgF-5pTv1pMjAMO-239" style="edgeStyle=orthogonalEdgeStyle;rounded=0;orthogonalLoop=1;jettySize=auto;html=1;exitX=0.59;exitY=0.997;exitDx=0;exitDy=0;endArrow=oval;endFill=1;exitPerimeter=0;" parent="1" edge="1">
          <mxGeometry relative="1" as="geometry">
            <mxPoint x="513" y="-19.899999999999835" as="sourcePoint" />
            <mxPoint x="530" y="-19.899999999999835" as="targetPoint" />
          </mxGeometry>
        </mxCell>
        <mxCell id="sh22XDgF-5pTv1pMjAMO-240" value="" style="endArrow=none;html=1;rounded=0;" parent="1" edge="1">
          <mxGeometry width="50" height="50" relative="1" as="geometry">
            <mxPoint x="513" y="49" as="sourcePoint" />
            <mxPoint x="513" y="-21" as="targetPoint" />
          </mxGeometry>
        </mxCell>
        <mxCell id="hpYev-jVlgreYYaQjmKu-5" value="" style="endArrow=none;html=1;rounded=0;" edge="1" parent="1">
          <mxGeometry width="50" height="50" relative="1" as="geometry">
            <mxPoint x="420" y="1019" as="sourcePoint" />
            <mxPoint x="420" y="931.6" as="targetPoint" />
          </mxGeometry>
        </mxCell>
        <mxCell id="hpYev-jVlgreYYaQjmKu-6" value="" style="endArrow=none;html=1;rounded=0;" edge="1" parent="1">
          <mxGeometry width="50" height="50" relative="1" as="geometry">
            <mxPoint x="200" y="606.8599999999999" as="sourcePoint" />
            <mxPoint x="200" y="541.8599999999999" as="targetPoint" />
          </mxGeometry>
        </mxCell>
        <mxCell id="hpYev-jVlgreYYaQjmKu-7" style="rounded=0;orthogonalLoop=1;jettySize=auto;html=1;exitX=0.05;exitY=1.005;exitDx=0;exitDy=0;endArrow=none;endFill=0;endSize=0;exitPerimeter=0;startSize=0;edgeStyle=elbowEdgeStyle;targetPerimeterSpacing=0;" edge="1" parent="1">
          <mxGeometry relative="1" as="geometry">
            <mxPoint x="90.22000000000008" y="998.74" as="targetPoint" />
            <mxPoint x="83.5400000000001" y="888.45" as="sourcePoint" />
          </mxGeometry>
        </mxCell>
        <mxCell id="hpYev-jVlgreYYaQjmKu-8" value="" style="rounded=0;whiteSpace=wrap;html=1;fillColor=#d5e8d4;strokeColor=#82b366;container=1;" vertex="1" parent="1">
          <mxGeometry x="80" y="849.45" width="120" height="60" as="geometry" />
        </mxCell>
        <mxCell id="hpYev-jVlgreYYaQjmKu-9" value="" style="group;movable=1;resizable=1;rotatable=1;deletable=1;editable=1;locked=0;connectable=1;" vertex="1" connectable="0" parent="hpYev-jVlgreYYaQjmKu-8">
          <mxGeometry width="120" height="60" as="geometry" />
        </mxCell>
        <mxCell id="hpYev-jVlgreYYaQjmKu-10" value="&lt;i&gt;&lt;b&gt;Voos&lt;/b&gt;&lt;/i&gt;" style="text;html=1;strokeColor=none;fillColor=none;align=center;verticalAlign=middle;whiteSpace=wrap;rounded=0;" vertex="1" parent="hpYev-jVlgreYYaQjmKu-9">
          <mxGeometry x="30" y="15" width="60" height="30" as="geometry" />
        </mxCell>
        <mxCell id="hpYev-jVlgreYYaQjmKu-11" value="" style="rounded=0;whiteSpace=wrap;html=1;fillColor=#d5e8d4;strokeColor=#82b366;container=1;" vertex="1" parent="1">
          <mxGeometry x="-67.5" y="637.3" width="120" height="60" as="geometry" />
        </mxCell>
        <mxCell id="hpYev-jVlgreYYaQjmKu-12" value="" style="group;movable=1;resizable=1;rotatable=1;deletable=1;editable=1;locked=0;connectable=1;" vertex="1" connectable="0" parent="hpYev-jVlgreYYaQjmKu-11">
          <mxGeometry width="120" height="60" as="geometry" />
        </mxCell>
        <mxCell id="hpYev-jVlgreYYaQjmKu-13" value="&lt;b&gt;&lt;i&gt;Passageiros&lt;/i&gt;&lt;/b&gt;" style="text;html=1;strokeColor=none;fillColor=none;align=center;verticalAlign=middle;whiteSpace=wrap;rounded=0;" vertex="1" parent="hpYev-jVlgreYYaQjmKu-12">
          <mxGeometry x="30" y="15" width="60" height="30" as="geometry" />
        </mxCell>
        <mxCell id="hpYev-jVlgreYYaQjmKu-14" style="edgeStyle=orthogonalEdgeStyle;rounded=0;orthogonalLoop=1;jettySize=auto;html=1;exitX=0;exitY=0.5;exitDx=0;exitDy=0;entryX=1;entryY=0.5;entryDx=0;entryDy=0;endArrow=none;endFill=0;" edge="1" parent="1" source="hpYev-jVlgreYYaQjmKu-16" target="hpYev-jVlgreYYaQjmKu-63">
          <mxGeometry relative="1" as="geometry">
            <mxPoint x="167.5" y="604.2623529411767" as="targetPoint" />
          </mxGeometry>
        </mxCell>
        <mxCell id="hpYev-jVlgreYYaQjmKu-15" value="" style="rounded=0;whiteSpace=wrap;html=1;fillColor=#d5e8d4;strokeColor=#82b366;container=1;" vertex="1" parent="1">
          <mxGeometry x="200" y="489.9999999999999" width="120" height="60" as="geometry" />
        </mxCell>
        <mxCell id="hpYev-jVlgreYYaQjmKu-16" value="" style="group;movable=1;resizable=1;rotatable=1;deletable=1;editable=1;locked=0;connectable=1;" vertex="1" connectable="0" parent="hpYev-jVlgreYYaQjmKu-15">
          <mxGeometry width="120" height="60" as="geometry" />
        </mxCell>
        <mxCell id="hpYev-jVlgreYYaQjmKu-17" value="&lt;i&gt;&lt;b&gt;Dependentes&lt;/b&gt;&lt;/i&gt;" style="text;html=1;strokeColor=none;fillColor=none;align=center;verticalAlign=middle;whiteSpace=wrap;rounded=0;" vertex="1" parent="hpYev-jVlgreYYaQjmKu-16">
          <mxGeometry x="30" y="15" width="60" height="30" as="geometry" />
        </mxCell>
        <mxCell id="hpYev-jVlgreYYaQjmKu-18" value="" style="rounded=0;whiteSpace=wrap;html=1;fillColor=#d5e8d4;strokeColor=#82b366;container=1;" vertex="1" parent="1">
          <mxGeometry x="410" y="902.6" width="120" height="60" as="geometry" />
        </mxCell>
        <mxCell id="hpYev-jVlgreYYaQjmKu-19" value="" style="group;movable=1;resizable=1;rotatable=1;deletable=1;editable=1;locked=0;connectable=1;" vertex="1" connectable="0" parent="hpYev-jVlgreYYaQjmKu-18">
          <mxGeometry width="120" height="60" as="geometry" />
        </mxCell>
        <mxCell id="hpYev-jVlgreYYaQjmKu-20" value="&lt;i&gt;&lt;b&gt;Assentos&lt;/b&gt;&lt;/i&gt;" style="text;html=1;strokeColor=none;fillColor=none;align=center;verticalAlign=middle;whiteSpace=wrap;rounded=0;" vertex="1" parent="hpYev-jVlgreYYaQjmKu-19">
          <mxGeometry x="30" y="15" width="63" height="30" as="geometry" />
        </mxCell>
        <mxCell id="hpYev-jVlgreYYaQjmKu-21" value="" style="rounded=0;whiteSpace=wrap;html=1;fillColor=#d5e8d4;strokeColor=#82b366;container=1;" vertex="1" parent="1">
          <mxGeometry x="500" y="690" width="120" height="60" as="geometry" />
        </mxCell>
        <mxCell id="hpYev-jVlgreYYaQjmKu-22" value="" style="group;movable=1;resizable=1;rotatable=1;deletable=1;editable=1;locked=0;connectable=1;" vertex="1" connectable="0" parent="hpYev-jVlgreYYaQjmKu-21">
          <mxGeometry width="120" height="60" as="geometry" />
        </mxCell>
        <mxCell id="hpYev-jVlgreYYaQjmKu-23" value="&lt;i&gt;&lt;b&gt;Reserva&lt;br&gt;&lt;/b&gt;&lt;/i&gt;" style="text;html=1;strokeColor=none;fillColor=none;align=center;verticalAlign=middle;whiteSpace=wrap;rounded=0;" vertex="1" parent="hpYev-jVlgreYYaQjmKu-22">
          <mxGeometry x="30" y="15" width="60" height="25" as="geometry" />
        </mxCell>
        <mxCell id="hpYev-jVlgreYYaQjmKu-24" value="Id (PK)" style="text;strokeColor=none;fillColor=none;align=left;verticalAlign=middle;spacingLeft=4;spacingRight=4;overflow=hidden;points=[[0,0.5],[1,0.5]];portConstraint=eastwest;rotatable=0;whiteSpace=wrap;html=1;" vertex="1" parent="1">
          <mxGeometry x="104.25" y="910.45" width="80" height="30" as="geometry" />
        </mxCell>
        <mxCell id="hpYev-jVlgreYYaQjmKu-25" value="&lt;br&gt;&lt;br&gt;NumeroAviao" style="text;strokeColor=none;fillColor=none;align=left;verticalAlign=middle;spacingLeft=4;spacingRight=4;overflow=hidden;points=[[0,0.5],[1,0.5]];portConstraint=eastwest;rotatable=0;whiteSpace=wrap;html=1;" vertex="1" parent="1">
          <mxGeometry x="103.12" y="902.5999999999999" width="137" height="44.29" as="geometry" />
        </mxCell>
        <mxCell id="hpYev-jVlgreYYaQjmKu-26" style="edgeStyle=orthogonalEdgeStyle;rounded=0;orthogonalLoop=1;jettySize=auto;html=1;entryX=0.5;entryY=0;entryDx=0;entryDy=0;endArrow=none;endFill=0;exitX=0.5;exitY=1;exitDx=0;exitDy=0;" edge="1" parent="1" source="hpYev-jVlgreYYaQjmKu-43" target="hpYev-jVlgreYYaQjmKu-18">
          <mxGeometry relative="1" as="geometry">
            <mxPoint x="490" y="855" as="sourcePoint" />
            <Array as="points">
              <mxPoint x="550" y="820" />
            </Array>
          </mxGeometry>
        </mxCell>
        <mxCell id="hpYev-jVlgreYYaQjmKu-27" value="CidadeOrigem" style="text;strokeColor=none;fillColor=none;align=left;verticalAlign=middle;spacingLeft=4;spacingRight=4;overflow=hidden;points=[[0,0.5],[1,0.5]];portConstraint=eastwest;rotatable=0;whiteSpace=wrap;html=1;" vertex="1" parent="1">
          <mxGeometry x="104.25" y="930.74" width="90" height="45" as="geometry" />
        </mxCell>
        <mxCell id="hpYev-jVlgreYYaQjmKu-28" value="CidadeDestino" style="text;strokeColor=none;fillColor=none;align=left;verticalAlign=middle;spacingLeft=4;spacingRight=4;overflow=hidden;points=[[0,0.5],[1,0.5]];portConstraint=eastwest;rotatable=0;whiteSpace=wrap;html=1;" vertex="1" parent="1">
          <mxGeometry x="103.12" y="954.74" width="90" height="30" as="geometry" />
        </mxCell>
        <mxCell id="hpYev-jVlgreYYaQjmKu-29" value="Id (PK)&lt;br&gt;VoosId (FK)&lt;br&gt;ReservaId (FK)" style="text;strokeColor=none;fillColor=none;align=left;verticalAlign=middle;spacingLeft=4;spacingRight=4;overflow=hidden;points=[[0,0.5],[1,0.5]];portConstraint=eastwest;rotatable=0;whiteSpace=wrap;html=1;" vertex="1" parent="1">
          <mxGeometry x="439" y="962.6" width="120" height="50" as="geometry" />
        </mxCell>
        <mxCell id="hpYev-jVlgreYYaQjmKu-30" value="Quatidade" style="text;strokeColor=none;fillColor=none;align=left;verticalAlign=middle;spacingLeft=4;spacingRight=4;overflow=hidden;points=[[0,0.5],[1,0.5]];portConstraint=eastwest;rotatable=0;whiteSpace=wrap;html=1;" vertex="1" parent="1">
          <mxGeometry x="439" y="1002.6" width="90" height="30" as="geometry" />
        </mxCell>
        <mxCell id="hpYev-jVlgreYYaQjmKu-31" style="edgeStyle=orthogonalEdgeStyle;rounded=0;orthogonalLoop=1;jettySize=auto;html=1;exitX=0.95;exitY=0.533;exitDx=0;exitDy=0;entryX=0;entryY=0.5;entryDx=0;entryDy=0;endArrow=none;endFill=0;exitPerimeter=0;" edge="1" parent="1" source="hpYev-jVlgreYYaQjmKu-44" target="hpYev-jVlgreYYaQjmKu-19">
          <mxGeometry relative="1" as="geometry">
            <mxPoint x="430" y="960" as="sourcePoint" />
          </mxGeometry>
        </mxCell>
        <mxCell id="hpYev-jVlgreYYaQjmKu-32" value="HoraVoo" style="text;strokeColor=none;fillColor=none;align=left;verticalAlign=middle;spacingLeft=4;spacingRight=4;overflow=hidden;points=[[0,0.5],[1,0.5]];portConstraint=eastwest;rotatable=0;whiteSpace=wrap;html=1;" vertex="1" parent="1">
          <mxGeometry x="104.25" y="969.15" width="90" height="30" as="geometry" />
        </mxCell>
        <mxCell id="hpYev-jVlgreYYaQjmKu-33" value="DataVoo" style="text;strokeColor=none;fillColor=none;align=left;verticalAlign=middle;spacingLeft=4;spacingRight=4;overflow=hidden;points=[[0,0.5],[1,0.5]];portConstraint=eastwest;rotatable=0;whiteSpace=wrap;html=1;" vertex="1" parent="1">
          <mxGeometry x="104.25" y="985.74" width="90" height="30" as="geometry" />
        </mxCell>
        <mxCell id="hpYev-jVlgreYYaQjmKu-34" value="Id (PK)&lt;br&gt;VoosId (FK)" style="text;strokeColor=none;fillColor=none;align=left;verticalAlign=middle;spacingLeft=4;spacingRight=4;overflow=hidden;points=[[0,0.5],[1,0.5]];portConstraint=eastwest;rotatable=0;whiteSpace=wrap;html=1;" vertex="1" parent="1">
          <mxGeometry x="-47.5" y="692.6" width="80" height="30" as="geometry" />
        </mxCell>
        <mxCell id="hpYev-jVlgreYYaQjmKu-35" value="CPF&lt;br&gt;Nome Telefone&lt;br&gt;E-mail EndereÃ§o" style="text;strokeColor=none;fillColor=none;align=left;verticalAlign=middle;spacingLeft=4;spacingRight=4;overflow=hidden;points=[[0,0.5],[1,0.5]];portConstraint=eastwest;rotatable=0;whiteSpace=wrap;html=1;" vertex="1" parent="1">
          <mxGeometry x="-47.5" y="717.6" width="90" height="80" as="geometry" />
        </mxCell>
        <mxCell id="hpYev-jVlgreYYaQjmKu-36" value="Rua&lt;br&gt;NÃºmero Complemento Bairro&lt;br&gt;CEP&lt;br&gt;Cidade&lt;br&gt;Estado" style="text;strokeColor=none;fillColor=none;align=left;verticalAlign=middle;spacingLeft=4;spacingRight=4;overflow=hidden;points=[[0,0.5],[1,0.5]];portConstraint=eastwest;rotatable=0;whiteSpace=wrap;html=1;" vertex="1" parent="1">
          <mxGeometry x="-17.5" y="792.5999999999999" width="90" height="110" as="geometry" />
        </mxCell>
        <mxCell id="hpYev-jVlgreYYaQjmKu-37" value="Id (PK)" style="text;strokeColor=none;fillColor=none;align=left;verticalAlign=middle;spacingLeft=4;spacingRight=4;overflow=hidden;points=[[0,0.5],[1,0.5]];portConstraint=eastwest;rotatable=0;whiteSpace=wrap;html=1;" vertex="1" parent="1">
          <mxGeometry x="220" y="549.9999999999999" width="80" height="25" as="geometry" />
        </mxCell>
        <mxCell id="hpYev-jVlgreYYaQjmKu-38" value="Nome&lt;br&gt;DataNascimento" style="text;strokeColor=none;fillColor=none;align=left;verticalAlign=middle;spacingLeft=4;spacingRight=4;overflow=hidden;points=[[0,0.5],[1,0.5]];portConstraint=eastwest;rotatable=0;whiteSpace=wrap;html=1;" vertex="1" parent="1">
          <mxGeometry x="220" y="578.27" width="110" height="40" as="geometry" />
        </mxCell>
        <mxCell id="hpYev-jVlgreYYaQjmKu-39" value="Id (PK)" style="text;strokeColor=none;fillColor=none;align=left;verticalAlign=middle;spacingLeft=4;spacingRight=4;overflow=hidden;points=[[0,0.5],[1,0.5]];portConstraint=eastwest;rotatable=0;whiteSpace=wrap;html=1;" vertex="1" parent="1">
          <mxGeometry x="520" y="603.77" width="80" height="30" as="geometry" />
        </mxCell>
        <mxCell id="hpYev-jVlgreYYaQjmKu-40" value="PassageirosId (FK)&lt;br&gt;DataReserva&lt;br&gt;HoraReserva" style="text;strokeColor=none;fillColor=none;align=left;verticalAlign=middle;spacingLeft=4;spacingRight=4;overflow=hidden;points=[[0,0.5],[1,0.5]];portConstraint=eastwest;rotatable=0;whiteSpace=wrap;html=1;" vertex="1" parent="1">
          <mxGeometry x="520" y="605" width="140" height="90" as="geometry" />
        </mxCell>
        <mxCell id="hpYev-jVlgreYYaQjmKu-41" style="edgeStyle=orthogonalEdgeStyle;rounded=0;orthogonalLoop=1;jettySize=auto;html=1;exitX=0.5;exitY=1;exitDx=0;exitDy=0;entryX=0.5;entryY=0;entryDx=0;entryDy=0;endArrow=none;endFill=0;" edge="1" parent="1" source="hpYev-jVlgreYYaQjmKu-42" target="hpYev-jVlgreYYaQjmKu-9">
          <mxGeometry relative="1" as="geometry" />
        </mxCell>
        <mxCell id="hpYev-jVlgreYYaQjmKu-42" value="viajam" style="rhombus;whiteSpace=wrap;html=1;fillColor=#d5e8d4;strokeColor=#82b366;container=1;" vertex="1" parent="1">
          <mxGeometry x="84.25" y="775" width="130" height="50" as="geometry" />
        </mxCell>
        <mxCell id="hpYev-jVlgreYYaQjmKu-43" value="contem" style="rhombus;whiteSpace=wrap;html=1;fillColor=#d5e8d4;strokeColor=#82b366;container=0;" vertex="1" parent="1">
          <mxGeometry x="490" y="799.15" width="130" height="51.73" as="geometry" />
        </mxCell>
        <mxCell id="hpYev-jVlgreYYaQjmKu-44" value="contem" style="rhombus;whiteSpace=wrap;html=1;fillColor=#d5e8d4;strokeColor=#82b366;container=0;" vertex="1" parent="1">
          <mxGeometry x="240" y="850.87" width="130" height="51.73" as="geometry" />
        </mxCell>
        <mxCell id="hpYev-jVlgreYYaQjmKu-45" value="PassageirosId (FK)" style="text;strokeColor=none;fillColor=none;align=left;verticalAlign=middle;spacingLeft=4;spacingRight=4;overflow=hidden;points=[[0,0.5],[1,0.5]];portConstraint=eastwest;rotatable=0;whiteSpace=wrap;html=1;" vertex="1" parent="1">
          <mxGeometry x="220" y="563" width="120" height="30" as="geometry" />
        </mxCell>
        <mxCell id="hpYev-jVlgreYYaQjmKu-46" style="edgeStyle=orthogonalEdgeStyle;rounded=0;orthogonalLoop=1;jettySize=auto;html=1;exitX=0.798;exitY=0.985;exitDx=0;exitDy=0;entryX=0.796;entryY=-0.061;entryDx=0;entryDy=0;entryPerimeter=0;endArrow=oval;endFill=0;exitPerimeter=0;" edge="1" parent="1">
          <mxGeometry relative="1" as="geometry">
            <mxPoint x="86.25" y="954.6" as="sourcePoint" />
            <mxPoint x="104.25" y="954.6" as="targetPoint" />
          </mxGeometry>
        </mxCell>
        <mxCell id="hpYev-jVlgreYYaQjmKu-47" style="edgeStyle=orthogonalEdgeStyle;rounded=0;orthogonalLoop=1;jettySize=auto;html=1;exitX=0.59;exitY=0.997;exitDx=0;exitDy=0;endArrow=oval;endFill=0;exitPerimeter=0;" edge="1" parent="1">
          <mxGeometry relative="1" as="geometry">
            <mxPoint x="86.25" y="969.76" as="sourcePoint" />
            <mxPoint x="103.25" y="969.76" as="targetPoint" />
          </mxGeometry>
        </mxCell>
        <mxCell id="hpYev-jVlgreYYaQjmKu-48" style="edgeStyle=orthogonalEdgeStyle;rounded=0;orthogonalLoop=1;jettySize=auto;html=1;exitX=0.5;exitY=0;exitDx=0;exitDy=0;entryX=0.49;entryY=-0.018;entryDx=0;entryDy=0;entryPerimeter=0;endArrow=oval;endFill=0;" edge="1" parent="1">
          <mxGeometry relative="1" as="geometry">
            <mxPoint x="86.435" y="984.7400000000001" as="sourcePoint" />
            <mxPoint x="104.25" y="985.4775000000001" as="targetPoint" />
          </mxGeometry>
        </mxCell>
        <mxCell id="hpYev-jVlgreYYaQjmKu-49" style="edgeStyle=orthogonalEdgeStyle;rounded=0;orthogonalLoop=1;jettySize=auto;html=1;exitX=0.195;exitY=1.013;exitDx=0;exitDy=0;entryX=0.195;entryY=-0.003;entryDx=0;entryDy=0;entryPerimeter=0;endArrow=oval;endFill=0;exitPerimeter=0;" edge="1" parent="1">
          <mxGeometry relative="1" as="geometry">
            <mxPoint x="86.25" y="999.05" as="sourcePoint" />
            <mxPoint x="104.25" y="999.05" as="targetPoint" />
          </mxGeometry>
        </mxCell>
        <mxCell id="hpYev-jVlgreYYaQjmKu-50" style="edgeStyle=orthogonalEdgeStyle;rounded=0;orthogonalLoop=1;jettySize=auto;html=1;exitX=0.59;exitY=0.997;exitDx=0;exitDy=0;endArrow=oval;endFill=0;exitPerimeter=0;" edge="1" parent="1">
          <mxGeometry relative="1" as="geometry">
            <mxPoint x="86.25" y="939.3000000000001" as="sourcePoint" />
            <mxPoint x="103.25" y="939.3000000000001" as="targetPoint" />
          </mxGeometry>
        </mxCell>
        <mxCell id="hpYev-jVlgreYYaQjmKu-51" style="edgeStyle=orthogonalEdgeStyle;rounded=0;orthogonalLoop=1;jettySize=auto;html=1;endArrow=oval;endFill=1;" edge="1" parent="1">
          <mxGeometry relative="1" as="geometry">
            <mxPoint x="85.75" y="926.24" as="sourcePoint" />
            <mxPoint x="102.75" y="926.19" as="targetPoint" />
          </mxGeometry>
        </mxCell>
        <mxCell id="hpYev-jVlgreYYaQjmKu-52" style="edgeStyle=orthogonalEdgeStyle;rounded=0;orthogonalLoop=1;jettySize=auto;html=1;exitX=0.5;exitY=1;exitDx=0;exitDy=0;entryX=0.5;entryY=0;entryDx=0;entryDy=0;endArrow=none;endFill=0;" edge="1" parent="1" source="hpYev-jVlgreYYaQjmKu-22" target="hpYev-jVlgreYYaQjmKu-43">
          <mxGeometry relative="1" as="geometry" />
        </mxCell>
        <mxCell id="hpYev-jVlgreYYaQjmKu-53" style="edgeStyle=orthogonalEdgeStyle;rounded=0;orthogonalLoop=1;jettySize=auto;html=1;exitX=0.798;exitY=0.985;exitDx=0;exitDy=0;entryX=0.796;entryY=-0.061;entryDx=0;entryDy=0;entryPerimeter=0;endArrow=oval;endFill=0;exitPerimeter=0;" edge="1" parent="1">
          <mxGeometry relative="1" as="geometry">
            <mxPoint x="420" y="1001.0400000000001" as="sourcePoint" />
            <mxPoint x="438" y="1001.0400000000001" as="targetPoint" />
          </mxGeometry>
        </mxCell>
        <mxCell id="hpYev-jVlgreYYaQjmKu-54" style="edgeStyle=orthogonalEdgeStyle;rounded=0;orthogonalLoop=1;jettySize=auto;html=1;exitX=0.59;exitY=0.997;exitDx=0;exitDy=0;endArrow=oval;endFill=0;exitPerimeter=0;" edge="1" parent="1">
          <mxGeometry relative="1" as="geometry">
            <mxPoint x="420" y="1018.2" as="sourcePoint" />
            <mxPoint x="437" y="1018.2" as="targetPoint" />
          </mxGeometry>
        </mxCell>
        <mxCell id="hpYev-jVlgreYYaQjmKu-55" style="edgeStyle=orthogonalEdgeStyle;rounded=0;orthogonalLoop=1;jettySize=auto;html=1;exitX=0.59;exitY=0.997;exitDx=0;exitDy=0;endArrow=oval;endFill=0;exitPerimeter=0;" edge="1" parent="1">
          <mxGeometry relative="1" as="geometry">
            <mxPoint x="420" y="987.7400000000001" as="sourcePoint" />
            <mxPoint x="437" y="987.7400000000001" as="targetPoint" />
          </mxGeometry>
        </mxCell>
        <mxCell id="hpYev-jVlgreYYaQjmKu-56" style="edgeStyle=orthogonalEdgeStyle;rounded=0;orthogonalLoop=1;jettySize=auto;html=1;endArrow=oval;endFill=1;" edge="1" parent="1">
          <mxGeometry relative="1" as="geometry">
            <mxPoint x="420.5" y="974.6800000000001" as="sourcePoint" />
            <mxPoint x="437.5" y="974.6300000000001" as="targetPoint" />
          </mxGeometry>
        </mxCell>
        <mxCell id="hpYev-jVlgreYYaQjmKu-57" value="&lt;b&gt;&lt;i&gt;n:1&lt;/i&gt;&lt;/b&gt;" style="text;html=1;strokeColor=none;fillColor=none;align=center;verticalAlign=middle;whiteSpace=wrap;rounded=0;" vertex="1" parent="1">
          <mxGeometry x="200" y="785" width="60" height="30" as="geometry" />
        </mxCell>
        <mxCell id="hpYev-jVlgreYYaQjmKu-58" value="&lt;i&gt;&lt;b&gt;1 : n&lt;/b&gt;&lt;/i&gt;" style="text;html=1;strokeColor=none;fillColor=none;align=center;verticalAlign=middle;whiteSpace=wrap;rounded=0;" vertex="1" parent="1">
          <mxGeometry x="270" y="820.87" width="60" height="30" as="geometry" />
        </mxCell>
        <mxCell id="hpYev-jVlgreYYaQjmKu-59" value="&lt;b&gt;&lt;i&gt;1:n&lt;/i&gt;&lt;/b&gt;" style="text;html=1;strokeColor=none;fillColor=none;align=center;verticalAlign=middle;whiteSpace=wrap;rounded=0;" vertex="1" parent="1">
          <mxGeometry x="240" y="641.98" width="60" height="30" as="geometry" />
        </mxCell>
        <mxCell id="hpYev-jVlgreYYaQjmKu-60" value="&lt;b&gt;&lt;i&gt;n:1&lt;/i&gt;&lt;/b&gt;" style="text;html=1;strokeColor=none;fillColor=none;align=center;verticalAlign=middle;whiteSpace=wrap;rounded=0;" vertex="1" parent="1">
          <mxGeometry x="-37.5" y="545" width="60" height="30" as="geometry" />
        </mxCell>
        <mxCell id="hpYev-jVlgreYYaQjmKu-61" value="&lt;i&gt;&lt;b&gt;1 : n&lt;/b&gt;&lt;/i&gt;" style="text;html=1;strokeColor=none;fillColor=none;align=center;verticalAlign=middle;whiteSpace=wrap;rounded=0;" vertex="1" parent="1">
          <mxGeometry x="610" y="810.01" width="60" height="30" as="geometry" />
        </mxCell>
        <mxCell id="hpYev-jVlgreYYaQjmKu-62" style="edgeStyle=orthogonalEdgeStyle;rounded=0;orthogonalLoop=1;jettySize=auto;html=1;exitX=0.5;exitY=1;exitDx=0;exitDy=0;endArrow=none;endFill=0;entryX=0.5;entryY=0;entryDx=0;entryDy=0;" edge="1" parent="1" source="hpYev-jVlgreYYaQjmKu-63" target="hpYev-jVlgreYYaQjmKu-12">
          <mxGeometry relative="1" as="geometry">
            <mxPoint x="-7" y="630" as="targetPoint" />
          </mxGeometry>
        </mxCell>
        <mxCell id="hpYev-jVlgreYYaQjmKu-63" value="possui" style="rhombus;whiteSpace=wrap;html=1;fillColor=#d5e8d4;strokeColor=#82b366;container=0;" vertex="1" parent="1">
          <mxGeometry x="5" y="538.2376470588235" width="145" height="48.52941176470588" as="geometry" />
        </mxCell>
        <mxCell id="hpYev-jVlgreYYaQjmKu-64" style="edgeStyle=orthogonalEdgeStyle;rounded=0;orthogonalLoop=1;jettySize=auto;html=1;exitX=1;exitY=0.5;exitDx=0;exitDy=0;entryX=0;entryY=0.5;entryDx=0;entryDy=0;endArrow=none;endFill=0;" edge="1" parent="1" source="hpYev-jVlgreYYaQjmKu-65" target="hpYev-jVlgreYYaQjmKu-22">
          <mxGeometry relative="1" as="geometry" />
        </mxCell>
        <mxCell id="hpYev-jVlgreYYaQjmKu-65" value="realiza" style="rhombus;whiteSpace=wrap;html=1;fillColor=#d5e8d4;strokeColor=#82b366;container=0;" vertex="1" parent="1">
          <mxGeometry x="200" y="667.6" width="130" height="50" as="geometry" />
        </mxCell>
        <mxCell id="hpYev-jVlgreYYaQjmKu-66" style="edgeStyle=orthogonalEdgeStyle;rounded=0;orthogonalLoop=1;jettySize=auto;html=1;exitX=0.59;exitY=0.997;exitDx=0;exitDy=0;endArrow=oval;endFill=0;exitPerimeter=0;" edge="1" parent="1">
          <mxGeometry relative="1" as="geometry">
            <mxPoint x="-67.5" y="727.6000000000001" as="sourcePoint" />
            <mxPoint x="-50.5" y="727.6000000000001" as="targetPoint" />
          </mxGeometry>
        </mxCell>
        <mxCell id="hpYev-jVlgreYYaQjmKu-67" style="edgeStyle=orthogonalEdgeStyle;rounded=0;orthogonalLoop=1;jettySize=auto;html=1;exitX=0.59;exitY=0.997;exitDx=0;exitDy=0;endArrow=oval;endFill=0;exitPerimeter=0;" edge="1" parent="1">
          <mxGeometry relative="1" as="geometry">
            <mxPoint x="-67.5" y="741.7200000000001" as="sourcePoint" />
            <mxPoint x="-50.5" y="741.7200000000001" as="targetPoint" />
          </mxGeometry>
        </mxCell>
        <mxCell id="hpYev-jVlgreYYaQjmKu-68" style="edgeStyle=orthogonalEdgeStyle;rounded=0;orthogonalLoop=1;jettySize=auto;html=1;exitX=0.59;exitY=0.997;exitDx=0;exitDy=0;endArrow=oval;endFill=0;exitPerimeter=0;" edge="1" parent="1">
          <mxGeometry relative="1" as="geometry">
            <mxPoint x="-67.5" y="757.4600000000002" as="sourcePoint" />
            <mxPoint x="-50.5" y="757.4600000000002" as="targetPoint" />
          </mxGeometry>
        </mxCell>
        <mxCell id="hpYev-jVlgreYYaQjmKu-69" style="edgeStyle=orthogonalEdgeStyle;rounded=0;orthogonalLoop=1;jettySize=auto;html=1;exitX=0.59;exitY=0.997;exitDx=0;exitDy=0;endArrow=oval;endFill=0;exitPerimeter=0;" edge="1" parent="1">
          <mxGeometry relative="1" as="geometry">
            <mxPoint x="-67.5" y="771.6000000000001" as="sourcePoint" />
            <mxPoint x="-50.5" y="771.6000000000001" as="targetPoint" />
          </mxGeometry>
        </mxCell>
        <mxCell id="hpYev-jVlgreYYaQjmKu-70" style="edgeStyle=orthogonalEdgeStyle;rounded=0;orthogonalLoop=1;jettySize=auto;html=1;exitX=0.59;exitY=0.997;exitDx=0;exitDy=0;endArrow=oval;endFill=0;exitPerimeter=0;" edge="1" parent="1">
          <mxGeometry relative="1" as="geometry">
            <mxPoint x="-67.5" y="786.6000000000001" as="sourcePoint" />
            <mxPoint x="-50.5" y="786.6000000000001" as="targetPoint" />
          </mxGeometry>
        </mxCell>
        <mxCell id="hpYev-jVlgreYYaQjmKu-71" style="edgeStyle=orthogonalEdgeStyle;rounded=0;orthogonalLoop=1;jettySize=auto;html=1;exitX=0.59;exitY=0.997;exitDx=0;exitDy=0;endArrow=oval;endFill=0;exitPerimeter=0;" edge="1" parent="1">
          <mxGeometry relative="1" as="geometry">
            <mxPoint x="-37.5" y="807.6000000000001" as="sourcePoint" />
            <mxPoint x="-20.5" y="807.6000000000001" as="targetPoint" />
          </mxGeometry>
        </mxCell>
        <mxCell id="hpYev-jVlgreYYaQjmKu-72" style="edgeStyle=orthogonalEdgeStyle;rounded=0;orthogonalLoop=1;jettySize=auto;html=1;exitX=0.59;exitY=0.997;exitDx=0;exitDy=0;endArrow=oval;endFill=0;exitPerimeter=0;" edge="1" parent="1">
          <mxGeometry relative="1" as="geometry">
            <mxPoint x="-37.5" y="819.6000000000001" as="sourcePoint" />
            <mxPoint x="-20.5" y="819.6000000000001" as="targetPoint" />
          </mxGeometry>
        </mxCell>
        <mxCell id="hpYev-jVlgreYYaQjmKu-73" style="edgeStyle=orthogonalEdgeStyle;rounded=0;orthogonalLoop=1;jettySize=auto;html=1;exitX=0.59;exitY=0.997;exitDx=0;exitDy=0;endArrow=oval;endFill=0;exitPerimeter=0;" edge="1" parent="1">
          <mxGeometry relative="1" as="geometry">
            <mxPoint x="-37.5" y="832.6000000000001" as="sourcePoint" />
            <mxPoint x="-20.5" y="832.6000000000001" as="targetPoint" />
          </mxGeometry>
        </mxCell>
        <mxCell id="hpYev-jVlgreYYaQjmKu-74" style="edgeStyle=orthogonalEdgeStyle;rounded=0;orthogonalLoop=1;jettySize=auto;html=1;exitX=0.59;exitY=0.997;exitDx=0;exitDy=0;endArrow=oval;endFill=0;exitPerimeter=0;" edge="1" parent="1">
          <mxGeometry relative="1" as="geometry">
            <mxPoint x="-37.5" y="847.46" as="sourcePoint" />
            <mxPoint x="-20.5" y="847.46" as="targetPoint" />
          </mxGeometry>
        </mxCell>
        <mxCell id="hpYev-jVlgreYYaQjmKu-75" style="edgeStyle=orthogonalEdgeStyle;rounded=0;orthogonalLoop=1;jettySize=auto;html=1;exitX=0.59;exitY=0.997;exitDx=0;exitDy=0;endArrow=oval;endFill=0;exitPerimeter=0;" edge="1" parent="1">
          <mxGeometry relative="1" as="geometry">
            <mxPoint x="-37.5" y="862.46" as="sourcePoint" />
            <mxPoint x="-20.5" y="862.46" as="targetPoint" />
          </mxGeometry>
        </mxCell>
        <mxCell id="hpYev-jVlgreYYaQjmKu-76" style="edgeStyle=orthogonalEdgeStyle;rounded=0;orthogonalLoop=1;jettySize=auto;html=1;exitX=0.59;exitY=0.997;exitDx=0;exitDy=0;endArrow=oval;endFill=0;exitPerimeter=0;" edge="1" parent="1">
          <mxGeometry relative="1" as="geometry">
            <mxPoint x="-37.5" y="877.6000000000001" as="sourcePoint" />
            <mxPoint x="-20.5" y="877.6000000000001" as="targetPoint" />
          </mxGeometry>
        </mxCell>
        <mxCell id="hpYev-jVlgreYYaQjmKu-77" style="edgeStyle=orthogonalEdgeStyle;rounded=0;orthogonalLoop=1;jettySize=auto;html=1;exitX=0.59;exitY=0.997;exitDx=0;exitDy=0;endArrow=oval;endFill=0;exitPerimeter=0;" edge="1" parent="1">
          <mxGeometry relative="1" as="geometry">
            <mxPoint x="-37.5" y="892.6000000000001" as="sourcePoint" />
            <mxPoint x="-20.5" y="892.6000000000001" as="targetPoint" />
          </mxGeometry>
        </mxCell>
        <mxCell id="hpYev-jVlgreYYaQjmKu-78" style="edgeStyle=orthogonalEdgeStyle;rounded=0;orthogonalLoop=1;jettySize=auto;html=1;exitX=0.59;exitY=0.997;exitDx=0;exitDy=0;endArrow=oval;endFill=1;exitPerimeter=0;" edge="1" parent="1">
          <mxGeometry relative="1" as="geometry">
            <mxPoint x="-67.5" y="702.3900000000001" as="sourcePoint" />
            <mxPoint x="-50.5" y="702.3900000000001" as="targetPoint" />
          </mxGeometry>
        </mxCell>
        <mxCell id="hpYev-jVlgreYYaQjmKu-79" value="" style="endArrow=none;html=1;rounded=0;entryX=0;entryY=1;entryDx=0;entryDy=0;" edge="1" parent="1" target="hpYev-jVlgreYYaQjmKu-12">
          <mxGeometry width="50" height="50" relative="1" as="geometry">
            <mxPoint x="-67.5" y="787.5999999999999" as="sourcePoint" />
            <mxPoint x="-47.5" y="737.6" as="targetPoint" />
          </mxGeometry>
        </mxCell>
        <mxCell id="hpYev-jVlgreYYaQjmKu-80" value="" style="endArrow=none;html=1;rounded=0;" edge="1" parent="1">
          <mxGeometry width="50" height="50" relative="1" as="geometry">
            <mxPoint x="-37.5" y="892.5999999999999" as="sourcePoint" />
            <mxPoint x="-37.5" y="792.5999999999999" as="targetPoint" />
          </mxGeometry>
        </mxCell>
        <mxCell id="hpYev-jVlgreYYaQjmKu-81" style="edgeStyle=orthogonalEdgeStyle;rounded=0;orthogonalLoop=1;jettySize=auto;html=1;exitX=0.59;exitY=0.997;exitDx=0;exitDy=0;endArrow=oval;endFill=1;exitPerimeter=0;" edge="1" parent="1">
          <mxGeometry relative="1" as="geometry">
            <mxPoint x="200" y="565.0000000000001" as="sourcePoint" />
            <mxPoint x="217" y="565.0000000000001" as="targetPoint" />
          </mxGeometry>
        </mxCell>
        <mxCell id="hpYev-jVlgreYYaQjmKu-82" style="edgeStyle=orthogonalEdgeStyle;rounded=0;orthogonalLoop=1;jettySize=auto;html=1;exitX=0.59;exitY=0.997;exitDx=0;exitDy=0;endArrow=oval;endFill=0;exitPerimeter=0;" edge="1" parent="1">
          <mxGeometry relative="1" as="geometry">
            <mxPoint x="200" y="580.0000000000001" as="sourcePoint" />
            <mxPoint x="217" y="580.0000000000001" as="targetPoint" />
          </mxGeometry>
        </mxCell>
        <mxCell id="hpYev-jVlgreYYaQjmKu-83" style="edgeStyle=orthogonalEdgeStyle;rounded=0;orthogonalLoop=1;jettySize=auto;html=1;exitX=0.59;exitY=0.997;exitDx=0;exitDy=0;endArrow=oval;endFill=0;exitPerimeter=0;" edge="1" parent="1">
          <mxGeometry relative="1" as="geometry">
            <mxPoint x="200" y="593.0000000000001" as="sourcePoint" />
            <mxPoint x="217" y="593.0000000000001" as="targetPoint" />
          </mxGeometry>
        </mxCell>
        <mxCell id="hpYev-jVlgreYYaQjmKu-84" style="edgeStyle=orthogonalEdgeStyle;rounded=0;orthogonalLoop=1;jettySize=auto;html=1;exitX=0.59;exitY=0.997;exitDx=0;exitDy=0;endArrow=oval;endFill=0;exitPerimeter=0;" edge="1" parent="1">
          <mxGeometry relative="1" as="geometry">
            <mxPoint x="201" y="605.8600000000001" as="sourcePoint" />
            <mxPoint x="218" y="605.8600000000001" as="targetPoint" />
          </mxGeometry>
        </mxCell>
        <mxCell id="hpYev-jVlgreYYaQjmKu-85" style="edgeStyle=orthogonalEdgeStyle;rounded=0;orthogonalLoop=1;jettySize=auto;html=1;exitX=1;exitY=0.5;exitDx=0;exitDy=0;entryX=0;entryY=0.5;entryDx=0;entryDy=0;endArrow=none;endFill=0;" edge="1" parent="1" source="hpYev-jVlgreYYaQjmKu-9" target="hpYev-jVlgreYYaQjmKu-44">
          <mxGeometry relative="1" as="geometry" />
        </mxCell>
        <mxCell id="hpYev-jVlgreYYaQjmKu-86" style="edgeStyle=orthogonalEdgeStyle;rounded=0;orthogonalLoop=1;jettySize=auto;html=1;exitX=1;exitY=0.5;exitDx=0;exitDy=0;entryX=0;entryY=0.5;entryDx=0;entryDy=0;endArrow=none;endFill=0;" edge="1" parent="1" source="hpYev-jVlgreYYaQjmKu-12" target="hpYev-jVlgreYYaQjmKu-65">
          <mxGeometry relative="1" as="geometry" />
        </mxCell>
        <mxCell id="hpYev-jVlgreYYaQjmKu-87" style="edgeStyle=orthogonalEdgeStyle;rounded=0;orthogonalLoop=1;jettySize=auto;html=1;exitX=1;exitY=1;exitDx=0;exitDy=0;entryX=0;entryY=0.5;entryDx=0;entryDy=0;endArrow=none;endFill=0;" edge="1" parent="1" source="hpYev-jVlgreYYaQjmKu-12" target="hpYev-jVlgreYYaQjmKu-42">
          <mxGeometry relative="1" as="geometry" />
        </mxCell>
        <mxCell id="hpYev-jVlgreYYaQjmKu-88" style="edgeStyle=orthogonalEdgeStyle;rounded=0;orthogonalLoop=1;jettySize=auto;html=1;exitX=0.59;exitY=0.997;exitDx=0;exitDy=0;endArrow=oval;endFill=0;exitPerimeter=0;" edge="1" parent="1">
          <mxGeometry relative="1" as="geometry">
            <mxPoint x="-67.5" y="715.6000000000001" as="sourcePoint" />
            <mxPoint x="-50.5" y="715.6000000000001" as="targetPoint" />
          </mxGeometry>
        </mxCell>
        <mxCell id="hpYev-jVlgreYYaQjmKu-89" style="edgeStyle=orthogonalEdgeStyle;rounded=0;orthogonalLoop=1;jettySize=auto;html=1;exitX=0.59;exitY=0.997;exitDx=0;exitDy=0;endArrow=oval;endFill=0;exitPerimeter=0;" edge="1" parent="1">
          <mxGeometry relative="1" as="geometry">
            <mxPoint x="503" y="667.1000000000001" as="sourcePoint" />
            <mxPoint x="520" y="667.1000000000001" as="targetPoint" />
          </mxGeometry>
        </mxCell>
        <mxCell id="hpYev-jVlgreYYaQjmKu-90" style="edgeStyle=orthogonalEdgeStyle;rounded=0;orthogonalLoop=1;jettySize=auto;html=1;exitX=0.59;exitY=0.997;exitDx=0;exitDy=0;endArrow=oval;endFill=0;exitPerimeter=0;" edge="1" parent="1">
          <mxGeometry relative="1" as="geometry">
            <mxPoint x="503" y="635.1000000000001" as="sourcePoint" />
            <mxPoint x="520" y="635.1000000000001" as="targetPoint" />
          </mxGeometry>
        </mxCell>
        <mxCell id="hpYev-jVlgreYYaQjmKu-91" style="edgeStyle=orthogonalEdgeStyle;rounded=0;orthogonalLoop=1;jettySize=auto;html=1;exitX=0.59;exitY=0.997;exitDx=0;exitDy=0;endArrow=oval;endFill=0;exitPerimeter=0;" edge="1" parent="1">
          <mxGeometry relative="1" as="geometry">
            <mxPoint x="503" y="651.1000000000001" as="sourcePoint" />
            <mxPoint x="520" y="651.1000000000001" as="targetPoint" />
          </mxGeometry>
        </mxCell>
        <mxCell id="hpYev-jVlgreYYaQjmKu-92" style="edgeStyle=orthogonalEdgeStyle;rounded=0;orthogonalLoop=1;jettySize=auto;html=1;exitX=0.59;exitY=0.997;exitDx=0;exitDy=0;endArrow=oval;endFill=1;exitPerimeter=0;" edge="1" parent="1">
          <mxGeometry relative="1" as="geometry">
            <mxPoint x="503" y="620.1000000000001" as="sourcePoint" />
            <mxPoint x="520" y="620.1000000000001" as="targetPoint" />
          </mxGeometry>
        </mxCell>
        <mxCell id="hpYev-jVlgreYYaQjmKu-93" value="" style="endArrow=none;html=1;rounded=0;" edge="1" parent="1">
          <mxGeometry width="50" height="50" relative="1" as="geometry">
            <mxPoint x="503" y="689" as="sourcePoint" />
            <mxPoint x="503" y="619" as="targetPoint" />
          </mxGeometry>
        </mxCell>
        <mxCell id="hpYev-jVlgreYYaQjmKu-94" style="rounded=0;orthogonalLoop=1;jettySize=auto;html=1;exitX=1;exitY=0.5;exitDx=0;exitDy=0;entryX=0;entryY=1;entryDx=0;entryDy=0;endArrow=none;endFill=0;" edge="1" parent="1" source="hpYev-jVlgreYYaQjmKu-95" target="hpYev-jVlgreYYaQjmKu-22">
          <mxGeometry relative="1" as="geometry" />
        </mxCell>
        <mxCell id="hpYev-jVlgreYYaQjmKu-95" value="Faz" style="rhombus;whiteSpace=wrap;html=1;fillColor=#d5e8d4;strokeColor=#82b366;container=1;" vertex="1" parent="1">
          <mxGeometry x="300" y="760.01" width="130" height="50" as="geometry" />
        </mxCell>
        <mxCell id="hpYev-jVlgreYYaQjmKu-96" style="rounded=0;orthogonalLoop=1;jettySize=auto;html=1;exitX=1;exitY=0;exitDx=0;exitDy=0;entryX=0;entryY=0.5;entryDx=0;entryDy=0;endArrow=none;endFill=0;" edge="1" parent="1" source="hpYev-jVlgreYYaQjmKu-9" target="hpYev-jVlgreYYaQjmKu-95">
          <mxGeometry relative="1" as="geometry" />
        </mxCell>
        <mxCell id="hpYev-jVlgreYYaQjmKu-97" value="&lt;i&gt;&lt;b&gt;1 : n&lt;/b&gt;&lt;/i&gt;" style="text;html=1;strokeColor=none;fillColor=none;align=center;verticalAlign=middle;whiteSpace=wrap;rounded=0;" vertex="1" parent="1">
          <mxGeometry x="335" y="730.01" width="60" height="30" as="geometry" />
        </mxCell>
      </root>
    </mxGraphModel>
  </diagram>
</mxfile>
